<svg xmlns="http://www.w3.org/2000/svg" width="367" height="553" viewBox="0 0 367 553">
    <g fill="none" fill-rule="evenodd" stroke="#76A6EF" stroke-width="10">
        <path stroke-opacity=".12" d="M187.293 412.038l-1.487-90.03c-24.46-7.253-42.09-30.25-40.944-57.191 1.001-23.48 17.173-43.964 39.514-51.614 11.73-4.016 22.809-3.691 32.897-.967l89.41 16.836-32.497 307.578c-.544 5.539-4.827 9.818-10.127 10.599-.943.138-1.925.167-2.916.071-6.57-.641-11.368-6.453-10.733-12.977l3.97-39.254H70.648l3.97 39.254c.636 6.524-4.163 12.336-10.728 12.977-.996.096-1.978.067-2.926-.071-5.29-.78-9.578-5.06-10.122-10.599l-5.515-54.616-5.27-40.173c-4.838-35.055 22.11-62.356 55.348-55.769l91.889 25.946z"/>
        <path stroke-opacity=".04" d="M36.064 107.818c-19.5 10.414-31.8 30.97-31.044 53.614.762 22.81 15.835 43.371 37.678 52.37 9.46 3.898 18.912 5.042 28.475 3.804-.02.745-.031 1.487-.031 2.229 0 30.936 16.734 58.658 44.312 73.023l10.425 5.43-3.318-11.276c-2.145-7.288-3.253-14.583-3.253-21.796 0-43.357 35.486-78.654 79.102-78.654 6.21 0 12.553.775 18.664 2.278l.124.03.125.024c.528.102.812.16 1.128.237l88.818 20.719c14.728 3.436 30.194-1.168 40.059-12.201 8.786-9.82 13.98-22.146 14.605-35.377 1.515-31.99-22.821-58.853-54.216-61.282 1.34-12.66-.95-24.98-7.55-37.225-11.986-22.247-34.527-36.768-58.914-37.143-16.305-.245-31.76 5.27-44.027 15.285C178.501 16.156 147.275 1.89 114.267 5.58 76.043 9.858 44.28 38.894 36.778 76.435c-2.108 10.55-2.313 21.095-.714 31.383z"/>
    </g>
</svg>
