<svg xmlns="http://www.w3.org/2000/svg" width="26" height="40" viewBox="0 0 26 40">
    <g fill="none" fill-rule="evenodd">
        <path fill="#76A6EF" d="M12.937 29.966l.111-6.675c1.83-.538 3.15-2.243 3.065-4.24-.075-1.741-1.286-3.26-2.958-3.827a4.165 4.165 0 0 0-2.462-.072L4 16.4l2.432 22.805a.887.887 0 0 0 .977.79.885.885 0 0 0 .803-.961l-.297-2.91h13.753l-.297 2.91a.885.885 0 0 0 1.022.957.887.887 0 0 0 .757-.786l.413-4.05.395-2.978c.362-2.6-1.655-4.623-4.143-4.135l-6.878 1.924z"/>
        <path fill="#DCDEE5" d="M23.625 5.085c-.53-2.67-2.778-4.74-5.48-5.044a6.335 6.335 0 0 0-6.104 2.933 4.69 4.69 0 0 0-3.363-1.343c-1.726.027-3.275 1.08-4.09 2.603a4.4 4.4 0 0 0-.463 2.997c-.028 0-.056-.004-.085-.004a4.043 4.043 0 0 0-4.035 4.24 3.927 3.927 0 0 0 .999 2.435c.655.737 1.678 1.03 2.637.804l6.655-1.562c.032-.008.065-.015.098-.021.486-.12.991-.183 1.488-.183 3.475 0 6.302 2.83 6.302 6.31 0 .598-.094 1.185-.26 1.75 1.955-1.025 3.12-2.994 3.12-5.173 0-.212-.013-.42-.034-.627.735.178 1.538.179 2.396-.177 1.475-.612 2.539-2.017 2.592-3.614a4.043 4.043 0 0 0-2.37-3.818 6.405 6.405 0 0 0-.003-2.506z"/>
    </g>
</svg>
